<?xml version="1.0" encoding="utf-8"?>
<!-- Svg Vector Icons : http://www.onlinewebfonts.com/icon -->
<!DOCTYPE svg PUBLIC "-//W3C//DTD SVG 1.1//EN" "http://www.w3.org/Graphics/SVG/1.1/DTD/svg11.dtd">
<svg version="1.1" xmlns="http://www.w3.org/2000/svg" xmlns:xlink="http://www.w3.org/1999/xlink" x="0px" y="0px" viewBox="0 0 1000 1000" enable-background="new 0 0 1000 1000" xml:space="preserve">
<metadata> Svg Vector Icons : http://www.onlinewebfonts.com/icon </metadata>
<g><g><path d="M524.1,314.1h70v196.9l164.1,98.4l-35,56.9L524.1,545.9V314.1z M570,80c115.2,0,214,40.8,296.4,122.5S990,383.3,990,500c0,116.7-41.2,215.8-123.6,297.5S685.2,920,570,920s-213.6-40.8-295.3-122.5l65.6-67.8c64.2,64.2,140.7,96.3,229.7,96.3c90.4,0,167.7-31.7,231.9-95.2s96.3-140.4,96.3-230.8S866,332.7,801.9,269.2S660.4,174.1,570,174.1s-167.3,31.7-230.8,95.2S244.1,409.6,244.1,500h140L195.9,688.1l-4.4-6.6L10,500h140c0-116.7,41.2-215.8,123.6-297.5C356,120.8,454.8,80,570,80z"/></g></g>
</svg>